<?xml version="1.0" standalone="no"?>
<!DOCTYPE svg PUBLIC "-//W3C//DTD SVG 20010904//EN"
 "http://www.w3.org/TR/2001/REC-SVG-20010904/DTD/svg10.dtd">
<svg version="1.0" xmlns="http://www.w3.org/2000/svg"
 width="910.000000pt" height="910.000000pt" viewBox="0 0 910.000000 910.000000"
 preserveAspectRatio="xMidYMid meet">
<metadata>
Created by potrace 1.16, written by Peter Selinger 2001-2019
</metadata>
<g transform="translate(0.000000,910.000000) scale(0.100000,-0.100000)"
fill="#000000" stroke="none">
<path d="M3920 8315 c-378 -379 -631 -638 -624 -643 99 -67 373 -253 525 -357
l196 -133 163 156 c215 206 335 302 379 302 20 0 181 -140 476 -415 82 -76
427 -415 765 -752 339 -337 619 -613 622 -613 7 0 187 238 246 326 22 33 88
139 147 234 l107 173 -1179 1179 c-648 648 -1180 1178 -1183 1178 -3 0 -291
-286 -640 -635z"/>
<path d="M8360 8619 c-142 -37 -431 -134 -609 -206 -492 -197 -1308 -607
-1447 -727 -35 -30 -37 -36 -27 -58 20 -43 107 -140 226 -251 l116 -108 328
161 c559 275 669 314 734 261 21 -17 24 -28 23 -78 -3 -139 -107 -388 -312
-748 -250 -439 -503 -809 -942 -1379 -119 -155 -219 -287 -223 -292 -3 -6 48
-76 114 -155 66 -79 153 -186 192 -236 39 -51 74 -89 78 -85 25 27 648 916
759 1082 321 481 522 824 745 1269 216 431 373 838 520 1342 49 169 50 180 25
212 -20 26 -26 27 -103 27 -58 -1 -116 -10 -197 -31z"/>
<path d="M462 8624 c-40 -28 -29 -116 43 -344 127 -404 393 -1043 646 -1550
163 -326 255 -470 302 -470 41 0 145 91 300 262 l78 86 -135 270 c-151 301
-209 433 -254 572 -39 120 -46 159 -37 215 9 63 38 82 100 66 117 -29 507
-216 785 -376 480 -277 881 -557 1365 -955 131 -107 241 -195 246 -195 17 0
464 399 464 415 0 11 -639 456 -970 675 -795 526 -1412 865 -1959 1076 -584
226 -897 308 -974 253z"/>
<path d="M2312 6701 c-119 -115 -656 -649 -1192 -1186 l-975 -976 435 -432
c541 -537 787 -767 823 -767 31 0 223 243 396 503 l112 168 -147 152 c-147
152 -257 283 -289 346 -13 26 -15 39 -6 57 25 57 316 368 816 874 611 619 839
855 902 938 25 32 25 33 7 54 -11 11 -73 64 -139 117 -245 197 -478 361 -514
361 -7 0 -110 -94 -229 -209z"/>
<path d="M4844 6673 c-223 -187 -382 -326 -559 -488 -522 -477 -1005 -953
-1005 -990 0 -19 123 -198 213 -310 40 -50 82 -103 94 -119 l23 -28 237 228
c378 365 513 492 768 725 294 268 359 326 600 534 127 109 236 203 243 210 10
9 -31 54 -196 212 l-208 201 -210 -175z"/>
<path d="M5140 5793 c-80 -48 -189 -128 -296 -219 l-105 -89 199 -192 c311
-300 587 -603 1146 -1256 192 -224 353 -406 358 -405 14 5 398 379 398 389 0
18 -169 246 -266 359 -393 456 -1337 1440 -1381 1440 -5 0 -28 -12 -53 -27z"/>
<path d="M7500 5529 c-106 -156 -217 -319 -247 -362 -29 -43 -53 -81 -53 -84
0 -3 68 -75 151 -161 223 -229 309 -343 296 -393 -14 -54 -282 -341 -947
-1014 -503 -508 -765 -785 -783 -824 -10 -22 -7 -28 38 -69 83 -75 225 -186
428 -332 l192 -139 1198 1197 1197 1197 -473 470 c-260 259 -547 544 -638 634
l-166 163 -193 -283z"/>
<path d="M2450 5245 c-107 -112 -195 -208 -195 -214 0 -30 948 -1063 1339
-1460 244 -247 332 -327 348 -314 78 59 408 337 408 343 0 5 -5 12 -10 15 -18
11 -659 694 -959 1020 -156 171 -383 424 -503 563 -121 138 -223 252 -226 252
-4 -1 -95 -93 -202 -205z"/>
<path d="M2213 3978 c-425 -582 -555 -771 -776 -1130 -233 -378 -467 -832
-627 -1214 -176 -420 -343 -925 -364 -1105 -10 -78 6 -94 86 -85 220 25 907
273 1558 563 363 162 709 350 743 404 26 41 -34 121 -217 293 l-127 119 -337
-166 c-346 -170 -433 -210 -537 -245 -292 -98 -296 37 -19 599 259 524 519
920 968 1473 262 323 326 403 326 410 0 15 -377 466 -389 466 -4 0 -133 -172
-288 -382z"/>
<path d="M5385 4289 c-27 -52 -361 -388 -655 -660 -139 -130 -353 -321 -813
-732 -147 -131 -267 -241 -267 -244 0 -2 86 -94 191 -203 l191 -198 97 66 c53
36 125 89 161 118 172 138 665 593 1182 1094 l398 384 -42 45 c-222 235 -364
361 -408 361 -12 0 -26 -13 -35 -31z"/>
<path d="M2622 3143 c-24 -27 -79 -93 -122 -148 -90 -117 -330 -460 -330 -472
0 -4 537 -545 1193 -1201 l1192 -1192 635 635 c397 397 631 638 625 644 -22
20 -714 481 -723 481 -5 0 -81 -69 -170 -154 -167 -159 -305 -271 -348 -282
-35 -9 -55 4 -176 111 -160 142 -291 268 -813 780 -677 665 -869 845 -903 845
-9 0 -36 -21 -60 -47z"/>
<path d="M5110 2808 c-52 -45 -157 -130 -233 -191 -76 -60 -137 -113 -135
-118 6 -17 694 -535 930 -700 781 -545 1533 -932 2376 -1220 278 -95 532 -157
587 -143 32 8 36 35 20 129 -77 442 -757 2040 -951 2235 l-34 35 -47 -25 c-46
-25 -207 -178 -298 -285 l-47 -54 167 -338 c184 -371 224 -460 255 -559 40
-129 20 -194 -58 -194 -184 0 -752 283 -1290 642 -353 236 -483 333 -997 747
-71 57 -134 108 -140 112 -6 4 -52 -28 -105 -73z"/>
</g>
</svg>
